<svg id="Layer_3" data-name="Layer 3" xmlns="http://www.w3.org/2000/svg" viewBox="0 0 265.33 335.59"><defs><style>.cls-1{fill:#0c1238;}.cls-2{fill:#5d6ab1;}</style></defs><title>logo</title><path class="cls-1" d="M131.87,72.91A60.93,60.93,0,0,0,108,77.43a62.45,62.45,0,0,0-20,13.68A61.81,61.81,0,0,0,74.47,111,61.15,61.15,0,0,0,70,134.79a61.78,61.78,0,0,0,61.88,61.87q19.89,0,35.26-10.84l-14.84-14.73a11.88,11.88,0,0,1-3.16-7.89,11.45,11.45,0,0,1,.84-4.37,10.76,10.76,0,0,1,2.37-3.58,11,11,0,0,1,3.53-2.36,11.27,11.27,0,0,1,4.42-.84,10.74,10.74,0,0,1,7.89,3.26l14.73,14.62q10.85-15.26,10.84-35.14a59.52,59.52,0,0,0-18.1-43.68Q157.44,72.92,131.87,72.91Z"/><path class="cls-2" d="M129.48,0C17.9,1.9-40.24,134.34,31.7,219.65l96.24,114.12a5.15,5.15,0,0,0,7.86,0L200,257.65a29.79,29.79,0,0,0-1.45-40h0c-7.63-8.68-21.25-10.61-32.21-5.64a71.32,71.32,0,0,1-7.09,2.78A86,86,0,0,1,131.87,219q-34.93,0-59.56-24.62T47.68,134.74A84,84,0,0,1,72.33,75.31Q97.05,50.59,131.87,50.6t59.46,24.73a84.65,84.65,0,0,1,18.58,27.09,83,83,0,0,1,6.15,32.37,85.93,85.93,0,0,1-4.21,27.36,73.37,73.37,0,0,1-3.72,9.08c-4.54,9.29-3.12,20.69,4.17,28a24,24,0,0,0,38.2-5.76C295.6,109.39,232.86-1.72,129.48,0Z"/></svg>