<?xml version="1.0" encoding="utf-8"?>
<!-- Generator: Adobe Illustrator 19.0.0, SVG Export Plug-In . SVG Version: 6.00 Build 0)  -->
<svg version="1.1" id="logo" xmlns="http://www.w3.org/2000/svg" xmlns:xlink="http://www.w3.org/1999/xlink" x="0px" y="0px"
	 viewBox="0 0 60.6 60.6" style="enable-background:new 0 0 60.6 60.6;" xml:space="preserve">
<style type="text/css">
	.x0081_ukowy_x0020_zielony{fill:url(#SVGID_1_);stroke:#FFFFFF;stroke-width:0.25;stroke-miterlimit:1;}
	.st0{fill:#4C3B91;}
	.st1{fill:#9787C0;}
</style>
<linearGradient id="SVGID_1_" gradientUnits="userSpaceOnUse" x1="-267.3169" y1="725.9937" x2="-266.6098" y2="725.2866">
	<stop  offset="0" style="stop-color:#2D9F35"/>
	<stop  offset="0.9831" style="stop-color:#162913"/>
</linearGradient>
<g id="color">
	<g>
		<path class="st0" d="M15.3,39.2c-1.7,3.8-2.1,6.8-0.7,8.2c1.5,1.5,4.8,1,9-1C21.2,45.3,17.8,43.4,15.3,39.2z"/>
		<path class="st0" d="M30.3,0C13.6,0,0,13.6,0,30.3c0,16.7,13.6,30.3,30.3,30.3c16.7,0,30.3-13.6,30.3-30.3
			C60.6,13.6,47.1,0,30.3,0z M42.6,42.7c-4.7,4.7-11.4,6.2-17.4,4.4c-6.5,4-12.2,5.4-14.6,3c-3.9-3.9,1.8-15.7,12.5-26.5
			c2.4-2.4,4.9-4.6,7.4-6.4c-5,1.7-11.9,6-17.6,12.5c0.2-4.2,1.9-8.3,5.1-11.5c4.7-4.7,11.5-6.2,17.5-4.3c3.2-1.9,6.2-3.2,8.6-3.7
			c-2.1,1.1-4.5,2.5-6.9,4.3c2,0.8,3.9,2.1,5.5,3.7C49.5,24.8,49.5,35.8,42.6,42.7z"/>
		<path class="st1" d="M40.4,19.1c0.6,10.9-4.1,20.1-12.9,26C43.6,47.7,50.9,28.4,40.4,19.1z"/>
	</g>
</g>
<g>
</g>
<g>
</g>
<g>
</g>
<g>
</g>
<g>
</g>
<g>
</g>
</svg>
