<svg id="Layer_1" data-name="Layer 1" xmlns="http://www.w3.org/2000/svg" viewBox="0 0 261.82 131.18"><defs><style>.cls-1{fill:#672745;}.cls-1,.cls-2{fill-rule:evenodd;}.cls-2{fill:#cfaebe;}</style></defs><title>logo</title><path class="cls-1" d="M360.27,331.51c3.55-1,7-1.61,10.52-.52,7.13,2.18,13.31,9.26,17.8,19.59,10.74,24.69,11.17,64.32-1.37,88.42-3.75,7.21-8.84,13.2-15.63,16.49a27.56,27.56,0,0,1-20.45,1.39l-55.57-15.45v12.33c0,5.34-4.62,9.06-9.82,7.45l-37.39-11.56A11,11,0,0,1,241,439.52V426.26l-38.19-10.62L192,418.35l-.54.13H191c-4.81,0-8.85-2.88-11.67-7.27-5.54-8.63-5.63-21.28-.38-30.06,2.79-4.66,6.93-7.78,12-7.81h.59l.49.11,11.34,2.79,156.92-44.73Zm-73.2,107.56-37.54-10.44v10.89a2.54,2.54,0,0,0,1.32,2l36.22,11.2V439.07ZM410.76,390h26.1c0,1.41.05,2.82.05,4.24h0c0,1.41,0,2.83-.06,4.25h-26.1c0-1.42.07-2.83.07-4.25V394c0-1.34,0-2.68-.06-4Zm13.09-59.08q.86,1.79,1.65,3.6l.13.31h0c.56,1.29,1.1,2.61,1.62,4L402,346c-.15-.36-.3-.72-.46-1.08-.4-.93-.82-1.85-1.27-2.77l0-.07c-.63-1.29-1.3-2.58-2-3.84l25.58-7.32Zm9.65,29.27q.44,2.07.81,4.17h0c.25,1.39.48,2.78.69,4.19l-25.83,3.62c-.22-1.4-.45-2.78-.71-4.15v0c-.26-1.4-.54-2.79-.85-4.16l25.9-3.63ZM434.86,420c-.23,1.4-.47,2.79-.74,4.18h0c-.26,1.4-.55,2.79-.85,4.16l-25.91-3.63c.33-1.37.63-2.75.91-4.15v0q.41-2.06.75-4.14L434.86,420Zm-8.23,29.66c-.56,1.32-1.13,2.63-1.73,3.91h0c-.61,1.31-1.24,2.61-1.9,3.87l-25.79-7.37c.77-1.23,1.51-2.5,2.2-3.79l0-.07.35-.65c.53-1,1-2.08,1.54-3.15l25.3,7.24Z" transform="translate(-175.09 -330.41)"/><path class="cls-2" d="M243,407.28q-.58-3.87-1-7.76l8.44-.73q.51,4.69,1.29,9.36l-8.72-.87Zm85.82-11.11,14.47.42c-3.07-15.9-2.75-34.85,3.78-49.78q.72-1.63,1.5-3.12L205.25,384.54a2.62,2.62,0,0,0-1.35,1.19l123.9-11.8a172,172,0,0,0,1,22.24Zm1.23,8.52c1.53,8.92,3.93,18.26,7.53,26.2,3,6.59,6.78,12.15,11.54,15.49a18.47,18.47,0,0,0,21.54-.21,30.82,30.82,0,0,0,9.05-11.09c11.34-21.8,10.84-58.8,1.13-81.12-7.3-16.79-18.11-21.77-26-3.77-7.65,17.47-5.23,37.27-.8,55.19l-24-.69Zm4.86,38.87c-10.52-15.55-15-40.86-15.55-60.31l-95.83,9.13-20.15,1.92-1.74.16c-.22,3.51.16,8.07,1.72,11.26.45.92.95,1.52,1.47,1.67l60.5,16.82a155.07,155.07,0,0,1-4.77-26.29l8.46-.73a140.16,140.16,0,0,0,6,29.71l10.81,3c-1.11-3.32-2.26-7.25-3.08-10.68l9.17,1.4a95.16,95.16,0,0,0,4,12.09l10.81,3c-5.19-12.63-7.86-27.43-8.94-41l8.44-.73c1.14,14.42,4.38,32,11.26,44.74l17.43,4.84ZM195.73,383.11l-5.16-1.27c-1.61.21-3.12,1.63-4.35,3.67-3.6,6-3.55,15.19.25,21.11,1.2,1.86,2.64,3.13,4.13,3.33l4.81-1.2c-3.24-7.08-3.08-18.63.32-25.64Zm85.35,27.94c-.91-5.12-1.54-10.13-1.95-14.74l8.45-.73c.39,4.36,1,9.14,1.88,14.06q.19,1.14.42,2.28l-8.8-.87Z" transform="translate(-175.09 -330.41)"/></svg>